<?xml version="1.0" standalone="no"?>
<!DOCTYPE svg PUBLIC "-//W3C//DTD SVG 20010904//EN"
 "http://www.w3.org/TR/2001/REC-SVG-20010904/DTD/svg10.dtd">
<svg version="1.0" xmlns="http://www.w3.org/2000/svg"
 width="512.000000pt" height="512.000000pt" viewBox="0 0 512.000000 512.000000"
 preserveAspectRatio="xMidYMid meet" fill="#D9D9D9">

<g transform="translate(0.000000,512.000000) scale(0.100000,-0.100000)"
fill="#D9D9D9" stroke="none">
<path d="M2355 4629 c-305 -31 -608 -132 -865 -287 -341 -206 -642 -539 -808
-892 -231 -492 -263 -1040 -92 -1552 44 -133 125 -311 183 -401 l37 -57 -165
0 -165 0 0 -160 0 -160 480 0 480 0 0 480 0 480 -160 0 -160 0 -2 -262 -3
-263 -48 75 c-27 41 -68 116 -92 166 -273 571 -222 1231 137 1761 90 134 292
340 428 436 115 82 331 191 463 235 445 148 917 115 1337 -91 58 -29 108 -52
112 -52 9 0 158 250 158 265 0 19 -257 137 -399 184 -279 91 -575 124 -856 95z"/>
<path d="M3680 3520 l0 -480 160 0 160 0 0 263 c0 299 -6 288 84 137 94 -158
176 -384 212 -585 22 -125 26 -442 5 -555 -35 -199 -89 -367 -171 -530 -357
-713 -1168 -1101 -1945 -929 -135 30 -285 83 -409 144 -60 31 -113 52 -116 48
-17 -21 -150 -253 -150 -261 0 -15 199 -114 314 -157 121 -45 286 -88 421
-111 157 -27 482 -25 648 5 463 81 838 278 1157 607 339 350 534 776 581 1274
38 406 -70 880 -279 1223 l-41 67 165 0 164 0 0 160 0 160 -480 0 -480 0 0
-480z"/>
</g>
</svg>
